# xmcd CD database file
#
# Track frame offsets:
#	150
#	21900
#	41220
#	62950
#
# Disc length: 1094 seconds
#
# Revision: 2
# Processed by: cddbd v1.5.1PL0 Copyright (c) Steve Scherf et al.
# Submitted via: CDex 1.51
#
DISCID=35044404
DTITLE=和田アキ子 - 帰り来ぬ青春
DYEAR=1900
DGENRE=J-Pop
TTITLE0=帰り来ぬ青春　redymade mix2004
TTITLE1=生きる
TTITLE2=帰り来ぬ青春　redymade mix2004(Off Vocal)
TTITLE3=生きる (Off Vocal)
EXTD=
EXTT0=
EXTT1=
EXTT2=
EXTT3=
PLAYORDER=
